<svg xmlns="http://www.w3.org/2000/svg" xmlns:xlink="http://www.w3.org/1999/xlink" width="500" zoomAndPan="magnify" viewBox="0 0 375 119.999999" height="160" preserveAspectRatio="xMidYMid meet" version="1.0"><defs><g/><clipPath id="ace67ec99c"><path d="M 0 16.113281 L 127.5 16.113281 L 127.5 103.863281 L 0 103.863281 Z M 0 16.113281 " clip-rule="nonzero"/></clipPath><clipPath id="515b9c6f7b"><path d="M 54.328125 85.65625 L 119.144531 85.65625 C 120.519531 83.753906 121.753906 81.738281 122.820312 79.625 C 122.839844 79.585938 122.859375 79.542969 122.878906 79.503906 C 123.328125 78.609375 123.742188 77.699219 124.128906 76.773438 C 124.941406 74.828125 125.617188 72.8125 126.144531 70.738281 L 45.71875 70.738281 L 43.570312 74.46875 L 42.238281 76.773438 L 37.421875 76.773438 L 36.089844 74.46875 L 33.9375 70.738281 L 25.332031 70.738281 L 21.027344 78.199219 L 23.179688 81.925781 L 25.332031 85.65625 L 33.9375 85.65625 L 36.089844 81.925781 L 37.421875 79.625 L 42.238281 79.625 L 43.570312 81.925781 L 45.71875 85.65625 Z M 44.472656 43.207031 L 45.800781 45.511719 L 47.953125 49.242188 L 126.144531 49.242188 C 125.617188 47.167969 124.941406 45.152344 124.128906 43.207031 C 123.746094 42.28125 123.328125 41.371094 122.878906 40.476562 C 122.859375 40.4375 122.839844 40.398438 122.816406 40.355469 C 121.753906 38.242188 120.519531 36.226562 119.140625 34.324219 L 47.953125 34.324219 L 45.800781 38.050781 L 44.472656 40.355469 L 39.652344 40.355469 L 38.320312 38.050781 L 36.171875 34.324219 L 27.5625 34.324219 L 25.410156 38.050781 L 23.257812 41.78125 L 27.5625 49.242188 L 36.171875 49.242188 L 38.320312 45.511719 L 39.652344 43.207031 Z M 105.757812 22.148438 C 99.253906 18.316406 91.6875 16.113281 83.636719 16.113281 L 67.332031 16.113281 L 65.179688 19.84375 L 63.851562 22.148438 L 59.03125 22.148438 L 55.550781 16.113281 L 46.941406 16.113281 L 44.789062 19.84375 L 43.460938 22.148438 L 42.640625 23.570312 L 43.460938 24.996094 L 44.789062 27.300781 L 46.941406 31.03125 L 55.550781 31.03125 L 57.703125 27.300781 L 59.03125 24.996094 L 63.851562 24.996094 L 65.179688 27.300781 L 67.332031 31.03125 L 116.507812 31.03125 C 114.550781 28.8125 112.375 26.785156 110.011719 24.996094 C 108.652344 23.96875 107.234375 23.015625 105.757812 22.148438 Z M 17.230469 59.988281 L 15.078125 56.261719 L 12.925781 52.53125 L 4.320312 52.53125 L 2.167969 56.261719 L 0.015625 59.988281 L 4.320312 67.449219 L 12.925781 67.449219 Z M 26.964844 88.949219 L 4.980469 88.949219 L 2.828125 92.675781 L 0.679688 96.40625 L 2.828125 100.136719 L 4.980469 103.863281 L 26.964844 103.863281 L 29.117188 100.136719 L 30.445312 97.832031 L 35.261719 97.832031 L 36.59375 100.136719 L 38.746094 103.863281 L 83.636719 103.863281 C 91.6875 103.863281 99.253906 101.664062 105.757812 97.832031 C 107.230469 96.964844 108.652344 96.011719 110.011719 94.980469 C 112.375 93.191406 114.550781 91.167969 116.507812 88.949219 L 38.746094 88.949219 L 36.59375 92.675781 L 35.261719 94.980469 L 30.445312 94.980469 L 29.117188 92.675781 Z M 57 52.53125 L 36.222656 52.53125 L 34.070312 56.261719 L 32.742188 58.566406 L 31.921875 59.988281 L 32.742188 61.414062 L 34.070312 63.71875 L 36.222656 67.449219 L 57 67.449219 L 59.152344 63.71875 L 60.480469 61.414062 L 65.300781 61.414062 L 64.476562 59.988281 L 68.78125 67.449219 L 126.847656 67.449219 C 127.1875 65.476562 127.394531 63.464844 127.460938 61.414062 C 127.476562 60.941406 127.484375 60.464844 127.484375 59.988281 C 127.484375 59.515625 127.476562 59.039062 127.460938 58.566406 C 127.394531 56.515625 127.1875 54.503906 126.847656 52.53125 L 68.78125 52.53125 L 64.476562 59.992188 L 65.300781 58.566406 L 60.480469 58.566406 L 59.152344 56.261719 Z M 57 52.53125 " clip-rule="evenodd"/></clipPath><linearGradient x1="2685.782232" gradientTransform="matrix(0.0461009, 0, 0, 0.0461286, 0.0166962, 16.114763)" y1="-54.272051" x2="914.65397" gradientUnits="userSpaceOnUse" y2="2529.313755" id="4b7bf5575f"><stop stop-opacity="1" stop-color="rgb(0%, 25.099182%, 100%)" offset="0"/><stop stop-opacity="1" stop-color="rgb(0%, 25.099182%, 100%)" offset="0.0625"/><stop stop-opacity="1" stop-color="rgb(0%, 25.099182%, 100%)" offset="0.0703125"/><stop stop-opacity="1" stop-color="rgb(0.218201%, 25.131226%, 99.94812%)" offset="0.0742188"/><stop stop-opacity="1" stop-color="rgb(0.436401%, 25.164795%, 99.897766%)" offset="0.078125"/><stop stop-opacity="1" stop-color="rgb(0.881958%, 25.230408%, 99.794006%)" offset="0.0820312"/><stop stop-opacity="1" stop-color="rgb(1.327515%, 25.297546%, 99.691772%)" offset="0.0859375"/><stop stop-opacity="1" stop-color="rgb(1.773071%, 25.363159%, 99.588013%)" offset="0.0898438"/><stop stop-opacity="1" stop-color="rgb(2.220154%, 25.430298%, 99.485779%)" offset="0.09375"/><stop stop-opacity="1" stop-color="rgb(2.66571%, 25.495911%, 99.382019%)" offset="0.0976562"/><stop stop-opacity="1" stop-color="rgb(3.111267%, 25.563049%, 99.279785%)" offset="0.101563"/><stop stop-opacity="1" stop-color="rgb(3.556824%, 25.628662%, 99.176025%)" offset="0.105469"/><stop stop-opacity="1" stop-color="rgb(4.00238%, 25.695801%, 99.073792%)" offset="0.109375"/><stop stop-opacity="1" stop-color="rgb(4.447937%, 25.761414%, 98.970032%)" offset="0.113281"/><stop stop-opacity="1" stop-color="rgb(4.89502%, 25.828552%, 98.867798%)" offset="0.117188"/><stop stop-opacity="1" stop-color="rgb(5.340576%, 25.894165%, 98.764038%)" offset="0.121094"/><stop stop-opacity="1" stop-color="rgb(5.786133%, 25.961304%, 98.661804%)" offset="0.125"/><stop stop-opacity="1" stop-color="rgb(6.231689%, 26.026917%, 98.558044%)" offset="0.128906"/><stop stop-opacity="1" stop-color="rgb(6.677246%, 26.094055%, 98.455811%)" offset="0.132813"/><stop stop-opacity="1" stop-color="rgb(7.122803%, 26.159668%, 98.352051%)" offset="0.136719"/><stop stop-opacity="1" stop-color="rgb(7.569885%, 26.226807%, 98.249817%)" offset="0.140625"/><stop stop-opacity="1" stop-color="rgb(8.015442%, 26.292419%, 98.147583%)" offset="0.144531"/><stop stop-opacity="1" stop-color="rgb(8.460999%, 26.359558%, 98.045349%)" offset="0.148438"/><stop stop-opacity="1" stop-color="rgb(8.906555%, 26.425171%, 97.941589%)" offset="0.152344"/><stop stop-opacity="1" stop-color="rgb(9.352112%, 26.49231%, 97.839355%)" offset="0.15625"/><stop stop-opacity="1" stop-color="rgb(9.797668%, 26.557922%, 97.735596%)" offset="0.160156"/><stop stop-opacity="1" stop-color="rgb(10.243225%, 26.625061%, 97.633362%)" offset="0.164062"/><stop stop-opacity="1" stop-color="rgb(10.688782%, 26.690674%, 97.529602%)" offset="0.167969"/><stop stop-opacity="1" stop-color="rgb(11.135864%, 26.757812%, 97.427368%)" offset="0.171875"/><stop stop-opacity="1" stop-color="rgb(11.581421%, 26.824951%, 97.323608%)" offset="0.175781"/><stop stop-opacity="1" stop-color="rgb(12.026978%, 26.89209%, 97.221375%)" offset="0.179688"/><stop stop-opacity="1" stop-color="rgb(12.472534%, 26.957703%, 97.117615%)" offset="0.183594"/><stop stop-opacity="1" stop-color="rgb(12.918091%, 27.024841%, 97.015381%)" offset="0.1875"/><stop stop-opacity="1" stop-color="rgb(13.363647%, 27.090454%, 96.911621%)" offset="0.191406"/><stop stop-opacity="1" stop-color="rgb(13.81073%, 27.157593%, 96.809387%)" offset="0.195312"/><stop stop-opacity="1" stop-color="rgb(14.256287%, 27.223206%, 96.705627%)" offset="0.199219"/><stop stop-opacity="1" stop-color="rgb(14.701843%, 27.290344%, 96.603394%)" offset="0.203125"/><stop stop-opacity="1" stop-color="rgb(15.1474%, 27.355957%, 96.499634%)" offset="0.207031"/><stop stop-opacity="1" stop-color="rgb(15.592957%, 27.423096%, 96.3974%)" offset="0.210937"/><stop stop-opacity="1" stop-color="rgb(16.038513%, 27.488708%, 96.29364%)" offset="0.214844"/><stop stop-opacity="1" stop-color="rgb(16.485596%, 27.555847%, 96.191406%)" offset="0.21875"/><stop stop-opacity="1" stop-color="rgb(16.931152%, 27.62146%, 96.087646%)" offset="0.222656"/><stop stop-opacity="1" stop-color="rgb(17.376709%, 27.688599%, 95.985413%)" offset="0.226562"/><stop stop-opacity="1" stop-color="rgb(17.822266%, 27.754211%, 95.881653%)" offset="0.230469"/><stop stop-opacity="1" stop-color="rgb(18.267822%, 27.82135%, 95.779419%)" offset="0.234375"/><stop stop-opacity="1" stop-color="rgb(18.713379%, 27.886963%, 95.675659%)" offset="0.238281"/><stop stop-opacity="1" stop-color="rgb(19.160461%, 27.954102%, 95.573425%)" offset="0.242188"/><stop stop-opacity="1" stop-color="rgb(19.606018%, 28.019714%, 95.469666%)" offset="0.246094"/><stop stop-opacity="1" stop-color="rgb(20.051575%, 28.086853%, 95.367432%)" offset="0.25"/><stop stop-opacity="1" stop-color="rgb(20.497131%, 28.152466%, 95.263672%)" offset="0.253906"/><stop stop-opacity="1" stop-color="rgb(20.942688%, 28.219604%, 95.161438%)" offset="0.257812"/><stop stop-opacity="1" stop-color="rgb(21.388245%, 28.285217%, 95.057678%)" offset="0.261719"/><stop stop-opacity="1" stop-color="rgb(21.833801%, 28.352356%, 94.955444%)" offset="0.265625"/><stop stop-opacity="1" stop-color="rgb(22.279358%, 28.417969%, 94.851685%)" offset="0.269531"/><stop stop-opacity="1" stop-color="rgb(22.72644%, 28.485107%, 94.749451%)" offset="0.273438"/><stop stop-opacity="1" stop-color="rgb(23.171997%, 28.55072%, 94.645691%)" offset="0.277344"/><stop stop-opacity="1" stop-color="rgb(23.617554%, 28.617859%, 94.543457%)" offset="0.28125"/><stop stop-opacity="1" stop-color="rgb(24.06311%, 28.683472%, 94.439697%)" offset="0.285156"/><stop stop-opacity="1" stop-color="rgb(24.508667%, 28.75061%, 94.337463%)" offset="0.289062"/><stop stop-opacity="1" stop-color="rgb(24.954224%, 28.816223%, 94.233704%)" offset="0.292969"/><stop stop-opacity="1" stop-color="rgb(25.401306%, 28.883362%, 94.13147%)" offset="0.296875"/><stop stop-opacity="1" stop-color="rgb(25.846863%, 28.9505%, 94.02771%)" offset="0.300781"/><stop stop-opacity="1" stop-color="rgb(26.292419%, 29.017639%, 93.925476%)" offset="0.304688"/><stop stop-opacity="1" stop-color="rgb(26.737976%, 29.083252%, 93.821716%)" offset="0.308594"/><stop stop-opacity="1" stop-color="rgb(27.183533%, 29.150391%, 93.719482%)" offset="0.3125"/><stop stop-opacity="1" stop-color="rgb(27.629089%, 29.216003%, 93.615723%)" offset="0.316406"/><stop stop-opacity="1" stop-color="rgb(28.076172%, 29.283142%, 93.513489%)" offset="0.320312"/><stop stop-opacity="1" stop-color="rgb(28.521729%, 29.348755%, 93.409729%)" offset="0.324219"/><stop stop-opacity="1" stop-color="rgb(28.967285%, 29.415894%, 93.307495%)" offset="0.328125"/><stop stop-opacity="1" stop-color="rgb(29.412842%, 29.481506%, 93.203735%)" offset="0.332031"/><stop stop-opacity="1" stop-color="rgb(29.858398%, 29.548645%, 93.101501%)" offset="0.335938"/><stop stop-opacity="1" stop-color="rgb(30.303955%, 29.614258%, 92.997742%)" offset="0.339844"/><stop stop-opacity="1" stop-color="rgb(30.749512%, 29.681396%, 92.895508%)" offset="0.34375"/><stop stop-opacity="1" stop-color="rgb(31.195068%, 29.747009%, 92.791748%)" offset="0.347656"/><stop stop-opacity="1" stop-color="rgb(31.642151%, 29.814148%, 92.689514%)" offset="0.351563"/><stop stop-opacity="1" stop-color="rgb(32.087708%, 29.879761%, 92.585754%)" offset="0.355469"/><stop stop-opacity="1" stop-color="rgb(32.533264%, 29.946899%, 92.483521%)" offset="0.359375"/><stop stop-opacity="1" stop-color="rgb(32.978821%, 30.012512%, 92.379761%)" offset="0.363281"/><stop stop-opacity="1" stop-color="rgb(33.424377%, 30.079651%, 92.277527%)" offset="0.367188"/><stop stop-opacity="1" stop-color="rgb(33.869934%, 30.145264%, 92.173767%)" offset="0.371094"/><stop stop-opacity="1" stop-color="rgb(34.317017%, 30.212402%, 92.071533%)" offset="0.375"/><stop stop-opacity="1" stop-color="rgb(34.762573%, 30.278015%, 91.967773%)" offset="0.378906"/><stop stop-opacity="1" stop-color="rgb(35.20813%, 30.345154%, 91.86554%)" offset="0.382812"/><stop stop-opacity="1" stop-color="rgb(35.653687%, 30.410767%, 91.76178%)" offset="0.386719"/><stop stop-opacity="1" stop-color="rgb(36.099243%, 30.477905%, 91.659546%)" offset="0.390625"/><stop stop-opacity="1" stop-color="rgb(36.5448%, 30.543518%, 91.555786%)" offset="0.394531"/><stop stop-opacity="1" stop-color="rgb(36.991882%, 30.610657%, 91.453552%)" offset="0.398438"/><stop stop-opacity="1" stop-color="rgb(37.437439%, 30.67627%, 91.349792%)" offset="0.402344"/><stop stop-opacity="1" stop-color="rgb(37.882996%, 30.743408%, 91.247559%)" offset="0.40625"/><stop stop-opacity="1" stop-color="rgb(38.328552%, 30.809021%, 91.143799%)" offset="0.410156"/><stop stop-opacity="1" stop-color="rgb(38.774109%, 30.87616%, 91.041565%)" offset="0.414062"/><stop stop-opacity="1" stop-color="rgb(39.219666%, 30.941772%, 90.937805%)" offset="0.417969"/><stop stop-opacity="1" stop-color="rgb(39.666748%, 31.008911%, 90.835571%)" offset="0.421875"/><stop stop-opacity="1" stop-color="rgb(40.112305%, 31.07605%, 90.731812%)" offset="0.425781"/><stop stop-opacity="1" stop-color="rgb(40.557861%, 31.143188%, 90.629578%)" offset="0.429688"/><stop stop-opacity="1" stop-color="rgb(41.003418%, 31.208801%, 90.525818%)" offset="0.433594"/><stop stop-opacity="1" stop-color="rgb(41.448975%, 31.27594%, 90.423584%)" offset="0.4375"/><stop stop-opacity="1" stop-color="rgb(41.894531%, 31.341553%, 90.319824%)" offset="0.441406"/><stop stop-opacity="1" stop-color="rgb(42.340088%, 31.408691%, 90.21759%)" offset="0.445312"/><stop stop-opacity="1" stop-color="rgb(42.785645%, 31.474304%, 90.115356%)" offset="0.449219"/><stop stop-opacity="1" stop-color="rgb(43.232727%, 31.541443%, 90.013123%)" offset="0.453125"/><stop stop-opacity="1" stop-color="rgb(43.678284%, 31.607056%, 89.909363%)" offset="0.457031"/><stop stop-opacity="1" stop-color="rgb(44.12384%, 31.674194%, 89.807129%)" offset="0.460938"/><stop stop-opacity="1" stop-color="rgb(44.569397%, 31.739807%, 89.703369%)" offset="0.464844"/><stop stop-opacity="1" stop-color="rgb(45.014954%, 31.806946%, 89.601135%)" offset="0.46875"/><stop stop-opacity="1" stop-color="rgb(45.46051%, 31.872559%, 89.497375%)" offset="0.472656"/><stop stop-opacity="1" stop-color="rgb(45.907593%, 31.939697%, 89.395142%)" offset="0.476562"/><stop stop-opacity="1" stop-color="rgb(46.353149%, 32.00531%, 89.291382%)" offset="0.480469"/><stop stop-opacity="1" stop-color="rgb(46.798706%, 32.072449%, 89.189148%)" offset="0.484375"/><stop stop-opacity="1" stop-color="rgb(47.244263%, 32.138062%, 89.085388%)" offset="0.488281"/><stop stop-opacity="1" stop-color="rgb(47.689819%, 32.2052%, 88.983154%)" offset="0.492188"/><stop stop-opacity="1" stop-color="rgb(48.135376%, 32.270813%, 88.879395%)" offset="0.496094"/><stop stop-opacity="1" stop-color="rgb(48.582458%, 32.337952%, 88.777161%)" offset="0.5"/><stop stop-opacity="1" stop-color="rgb(49.028015%, 32.403564%, 88.673401%)" offset="0.503906"/><stop stop-opacity="1" stop-color="rgb(49.473572%, 32.470703%, 88.571167%)" offset="0.507812"/><stop stop-opacity="1" stop-color="rgb(49.919128%, 32.536316%, 88.467407%)" offset="0.511719"/><stop stop-opacity="1" stop-color="rgb(50.364685%, 32.603455%, 88.365173%)" offset="0.515625"/><stop stop-opacity="1" stop-color="rgb(50.810242%, 32.669067%, 88.261414%)" offset="0.519531"/><stop stop-opacity="1" stop-color="rgb(51.255798%, 32.736206%, 88.15918%)" offset="0.523438"/><stop stop-opacity="1" stop-color="rgb(51.701355%, 32.801819%, 88.05542%)" offset="0.527344"/><stop stop-opacity="1" stop-color="rgb(52.148438%, 32.868958%, 87.953186%)" offset="0.53125"/><stop stop-opacity="1" stop-color="rgb(52.593994%, 32.93457%, 87.849426%)" offset="0.535156"/><stop stop-opacity="1" stop-color="rgb(53.039551%, 33.001709%, 87.747192%)" offset="0.539062"/><stop stop-opacity="1" stop-color="rgb(53.485107%, 33.067322%, 87.643433%)" offset="0.542969"/><stop stop-opacity="1" stop-color="rgb(53.930664%, 33.13446%, 87.541199%)" offset="0.546875"/><stop stop-opacity="1" stop-color="rgb(54.376221%, 33.200073%, 87.437439%)" offset="0.550781"/><stop stop-opacity="1" stop-color="rgb(54.823303%, 33.267212%, 87.335205%)" offset="0.554688"/><stop stop-opacity="1" stop-color="rgb(55.26886%, 33.334351%, 87.231445%)" offset="0.558594"/><stop stop-opacity="1" stop-color="rgb(55.714417%, 33.401489%, 87.129211%)" offset="0.5625"/><stop stop-opacity="1" stop-color="rgb(56.159973%, 33.467102%, 87.025452%)" offset="0.566406"/><stop stop-opacity="1" stop-color="rgb(56.60553%, 33.534241%, 86.923218%)" offset="0.570312"/><stop stop-opacity="1" stop-color="rgb(57.051086%, 33.599854%, 86.819458%)" offset="0.574219"/><stop stop-opacity="1" stop-color="rgb(57.498169%, 33.666992%, 86.717224%)" offset="0.578125"/><stop stop-opacity="1" stop-color="rgb(57.943726%, 33.732605%, 86.613464%)" offset="0.582031"/><stop stop-opacity="1" stop-color="rgb(58.389282%, 33.799744%, 86.51123%)" offset="0.585938"/><stop stop-opacity="1" stop-color="rgb(58.834839%, 33.865356%, 86.407471%)" offset="0.589844"/><stop stop-opacity="1" stop-color="rgb(59.280396%, 33.932495%, 86.305237%)" offset="0.59375"/><stop stop-opacity="1" stop-color="rgb(59.725952%, 33.998108%, 86.201477%)" offset="0.597656"/><stop stop-opacity="1" stop-color="rgb(60.173035%, 34.065247%, 86.099243%)" offset="0.601562"/><stop stop-opacity="1" stop-color="rgb(60.618591%, 34.130859%, 85.995483%)" offset="0.605469"/><stop stop-opacity="1" stop-color="rgb(61.064148%, 34.197998%, 85.89325%)" offset="0.609375"/><stop stop-opacity="1" stop-color="rgb(61.509705%, 34.263611%, 85.78949%)" offset="0.613281"/><stop stop-opacity="1" stop-color="rgb(61.955261%, 34.33075%, 85.687256%)" offset="0.617188"/><stop stop-opacity="1" stop-color="rgb(62.400818%, 34.396362%, 85.583496%)" offset="0.621094"/><stop stop-opacity="1" stop-color="rgb(62.846375%, 34.463501%, 85.481262%)" offset="0.625"/><stop stop-opacity="1" stop-color="rgb(63.291931%, 34.529114%, 85.377502%)" offset="0.628906"/><stop stop-opacity="1" stop-color="rgb(63.739014%, 34.596252%, 85.275269%)" offset="0.632812"/><stop stop-opacity="1" stop-color="rgb(64.18457%, 34.661865%, 85.171509%)" offset="0.636719"/><stop stop-opacity="1" stop-color="rgb(64.630127%, 34.729004%, 85.069275%)" offset="0.640625"/><stop stop-opacity="1" stop-color="rgb(65.075684%, 34.794617%, 84.965515%)" offset="0.644531"/><stop stop-opacity="1" stop-color="rgb(65.52124%, 34.861755%, 84.863281%)" offset="0.648438"/><stop stop-opacity="1" stop-color="rgb(65.966797%, 34.927368%, 84.759521%)" offset="0.652344"/><stop stop-opacity="1" stop-color="rgb(66.413879%, 34.994507%, 84.657288%)" offset="0.65625"/><stop stop-opacity="1" stop-color="rgb(66.859436%, 35.06012%, 84.553528%)" offset="0.660156"/><stop stop-opacity="1" stop-color="rgb(67.304993%, 35.127258%, 84.451294%)" offset="0.664063"/><stop stop-opacity="1" stop-color="rgb(67.750549%, 35.192871%, 84.347534%)" offset="0.667969"/><stop stop-opacity="1" stop-color="rgb(68.196106%, 35.26001%, 84.2453%)" offset="0.671875"/><stop stop-opacity="1" stop-color="rgb(68.641663%, 35.325623%, 84.141541%)" offset="0.675781"/><stop stop-opacity="1" stop-color="rgb(69.088745%, 35.392761%, 84.039307%)" offset="0.679688"/><stop stop-opacity="1" stop-color="rgb(69.534302%, 35.4599%, 83.935547%)" offset="0.683594"/><stop stop-opacity="1" stop-color="rgb(69.979858%, 35.527039%, 83.833313%)" offset="0.6875"/><stop stop-opacity="1" stop-color="rgb(70.425415%, 35.592651%, 83.729553%)" offset="0.691406"/><stop stop-opacity="1" stop-color="rgb(70.870972%, 35.65979%, 83.627319%)" offset="0.695313"/><stop stop-opacity="1" stop-color="rgb(71.316528%, 35.725403%, 83.52356%)" offset="0.699219"/><stop stop-opacity="1" stop-color="rgb(71.762085%, 35.792542%, 83.421326%)" offset="0.703125"/><stop stop-opacity="1" stop-color="rgb(72.207642%, 35.858154%, 83.317566%)" offset="0.707031"/><stop stop-opacity="1" stop-color="rgb(72.654724%, 35.925293%, 83.215332%)" offset="0.710938"/><stop stop-opacity="1" stop-color="rgb(73.100281%, 35.990906%, 83.111572%)" offset="0.714844"/><stop stop-opacity="1" stop-color="rgb(73.545837%, 36.058044%, 83.009338%)" offset="0.71875"/><stop stop-opacity="1" stop-color="rgb(73.991394%, 36.123657%, 82.905579%)" offset="0.722656"/><stop stop-opacity="1" stop-color="rgb(74.436951%, 36.190796%, 82.803345%)" offset="0.726563"/><stop stop-opacity="1" stop-color="rgb(74.882507%, 36.256409%, 82.699585%)" offset="0.730469"/><stop stop-opacity="1" stop-color="rgb(75.32959%, 36.323547%, 82.597351%)" offset="0.734375"/><stop stop-opacity="1" stop-color="rgb(75.775146%, 36.38916%, 82.493591%)" offset="0.738281"/><stop stop-opacity="1" stop-color="rgb(76.220703%, 36.456299%, 82.391357%)" offset="0.742188"/><stop stop-opacity="1" stop-color="rgb(76.66626%, 36.521912%, 82.287598%)" offset="0.746094"/><stop stop-opacity="1" stop-color="rgb(77.111816%, 36.58905%, 82.185364%)" offset="0.75"/><stop stop-opacity="1" stop-color="rgb(77.557373%, 36.654663%, 82.08313%)" offset="0.753906"/><stop stop-opacity="1" stop-color="rgb(78.004456%, 36.721802%, 81.980896%)" offset="0.757813"/><stop stop-opacity="1" stop-color="rgb(78.450012%, 36.787415%, 81.877136%)" offset="0.761719"/><stop stop-opacity="1" stop-color="rgb(78.895569%, 36.854553%, 81.774902%)" offset="0.765625"/><stop stop-opacity="1" stop-color="rgb(79.341125%, 36.920166%, 81.671143%)" offset="0.769531"/><stop stop-opacity="1" stop-color="rgb(79.786682%, 36.987305%, 81.568909%)" offset="0.773438"/><stop stop-opacity="1" stop-color="rgb(80.232239%, 37.052917%, 81.465149%)" offset="0.777344"/><stop stop-opacity="1" stop-color="rgb(80.679321%, 37.120056%, 81.362915%)" offset="0.78125"/><stop stop-opacity="1" stop-color="rgb(81.124878%, 37.185669%, 81.259155%)" offset="0.785156"/><stop stop-opacity="1" stop-color="rgb(81.570435%, 37.252808%, 81.156921%)" offset="0.789063"/><stop stop-opacity="1" stop-color="rgb(82.015991%, 37.31842%, 81.053162%)" offset="0.792969"/><stop stop-opacity="1" stop-color="rgb(82.461548%, 37.385559%, 80.950928%)" offset="0.796875"/><stop stop-opacity="1" stop-color="rgb(82.907104%, 37.451172%, 80.847168%)" offset="0.800781"/><stop stop-opacity="1" stop-color="rgb(83.352661%, 37.518311%, 80.744934%)" offset="0.804688"/><stop stop-opacity="1" stop-color="rgb(83.798218%, 37.585449%, 80.641174%)" offset="0.808594"/><stop stop-opacity="1" stop-color="rgb(84.2453%, 37.652588%, 80.53894%)" offset="0.8125"/><stop stop-opacity="1" stop-color="rgb(84.690857%, 37.718201%, 80.435181%)" offset="0.816406"/><stop stop-opacity="1" stop-color="rgb(85.136414%, 37.785339%, 80.332947%)" offset="0.820313"/><stop stop-opacity="1" stop-color="rgb(85.58197%, 37.850952%, 80.229187%)" offset="0.824219"/><stop stop-opacity="1" stop-color="rgb(86.027527%, 37.918091%, 80.126953%)" offset="0.828125"/><stop stop-opacity="1" stop-color="rgb(86.473083%, 37.983704%, 80.023193%)" offset="0.832031"/><stop stop-opacity="1" stop-color="rgb(86.920166%, 38.050842%, 79.920959%)" offset="0.835938"/><stop stop-opacity="1" stop-color="rgb(87.365723%, 38.116455%, 79.8172%)" offset="0.839844"/><stop stop-opacity="1" stop-color="rgb(87.811279%, 38.183594%, 79.714966%)" offset="0.84375"/><stop stop-opacity="1" stop-color="rgb(88.256836%, 38.249207%, 79.611206%)" offset="0.847656"/><stop stop-opacity="1" stop-color="rgb(88.702393%, 38.316345%, 79.508972%)" offset="0.851562"/><stop stop-opacity="1" stop-color="rgb(89.147949%, 38.381958%, 79.405212%)" offset="0.855469"/><stop stop-opacity="1" stop-color="rgb(89.595032%, 38.449097%, 79.302979%)" offset="0.859375"/><stop stop-opacity="1" stop-color="rgb(90.040588%, 38.514709%, 79.199219%)" offset="0.863281"/><stop stop-opacity="1" stop-color="rgb(90.486145%, 38.581848%, 79.096985%)" offset="0.867188"/><stop stop-opacity="1" stop-color="rgb(90.931702%, 38.647461%, 78.993225%)" offset="0.871094"/><stop stop-opacity="1" stop-color="rgb(91.377258%, 38.7146%, 78.890991%)" offset="0.875"/><stop stop-opacity="1" stop-color="rgb(91.822815%, 38.780212%, 78.787231%)" offset="0.878906"/><stop stop-opacity="1" stop-color="rgb(92.269897%, 38.847351%, 78.684998%)" offset="0.882812"/><stop stop-opacity="1" stop-color="rgb(92.715454%, 38.912964%, 78.581238%)" offset="0.886719"/><stop stop-opacity="1" stop-color="rgb(93.161011%, 38.980103%, 78.479004%)" offset="0.890625"/><stop stop-opacity="1" stop-color="rgb(93.606567%, 39.045715%, 78.375244%)" offset="0.894531"/><stop stop-opacity="1" stop-color="rgb(94.052124%, 39.112854%, 78.27301%)" offset="0.898438"/><stop stop-opacity="1" stop-color="rgb(94.497681%, 39.178467%, 78.16925%)" offset="0.902344"/><stop stop-opacity="1" stop-color="rgb(94.943237%, 39.245605%, 78.067017%)" offset="0.90625"/><stop stop-opacity="1" stop-color="rgb(95.388794%, 39.311218%, 77.963257%)" offset="0.910156"/><stop stop-opacity="1" stop-color="rgb(95.835876%, 39.378357%, 77.861023%)" offset="0.914063"/><stop stop-opacity="1" stop-color="rgb(96.281433%, 39.44397%, 77.757263%)" offset="0.917969"/><stop stop-opacity="1" stop-color="rgb(96.72699%, 39.511108%, 77.655029%)" offset="0.921875"/><stop stop-opacity="1" stop-color="rgb(97.172546%, 39.576721%, 77.55127%)" offset="0.925781"/><stop stop-opacity="1" stop-color="rgb(97.618103%, 39.64386%, 77.449036%)" offset="0.929688"/><stop stop-opacity="1" stop-color="rgb(98.06366%, 39.709473%, 77.345276%)" offset="0.933594"/><stop stop-opacity="1" stop-color="rgb(98.510742%, 39.776611%, 77.243042%)" offset="0.9375"/><stop stop-opacity="1" stop-color="rgb(98.956299%, 39.84375%, 77.139282%)" offset="0.941406"/><stop stop-opacity="1" stop-color="rgb(99.401855%, 39.910889%, 77.037048%)" offset="0.945313"/><stop stop-opacity="1" stop-color="rgb(99.700928%, 39.955139%, 76.968384%)" offset="0.949219"/><stop stop-opacity="1" stop-color="rgb(100%, 39.99939%, 76.899719%)" offset="0.953125"/><stop stop-opacity="1" stop-color="rgb(100%, 39.99939%, 76.899719%)" offset="0.96875"/><stop stop-opacity="1" stop-color="rgb(100%, 39.99939%, 76.899719%)" offset="1"/></linearGradient></defs><g fill="#ffffff" fill-opacity="1"><g transform="translate(135.279835, 75.908607)"><g><path d="M 8.90625 -32.765625 L 8.90625 0 L 3.53125 0 L 3.53125 -32.765625 Z M 8.90625 -32.765625 "/></g></g></g><g fill="#ffffff" fill-opacity="1"><g transform="translate(147.722665, 75.908607)"><g><path d="M 38.046875 -32.765625 L 38.046875 0 L 32.671875 0 L 32.671875 -22.4375 L 22.671875 0 L 18.953125 0 L 8.90625 -22.4375 L 8.90625 0 L 3.53125 0 L 3.53125 -32.765625 L 9.328125 -32.765625 L 20.84375 -7.078125 L 32.296875 -32.765625 Z M 38.046875 -32.765625 "/></g></g></g><g fill="#ffffff" fill-opacity="1"><g transform="translate(189.293038, 75.908607)"><g><path d="M 26.453125 -23 C 26.453125 -21.332031 26.054688 -19.757812 25.265625 -18.28125 C 24.484375 -16.8125 23.226562 -15.613281 21.5 -14.6875 C 19.769531 -13.757812 17.550781 -13.296875 14.84375 -13.296875 L 8.90625 -13.296875 L 8.90625 0 L 3.53125 0 L 3.53125 -32.765625 L 14.84375 -32.765625 C 17.363281 -32.765625 19.492188 -32.332031 21.234375 -31.46875 C 22.984375 -30.601562 24.289062 -29.429688 25.15625 -27.953125 C 26.019531 -26.472656 26.453125 -24.820312 26.453125 -23 Z M 14.84375 -17.671875 C 16.882812 -17.671875 18.410156 -18.132812 19.421875 -19.0625 C 20.429688 -19.988281 20.9375 -21.300781 20.9375 -23 C 20.9375 -26.582031 18.90625 -28.375 14.84375 -28.375 L 8.90625 -28.375 L 8.90625 -17.671875 Z M 14.84375 -17.671875 "/></g></g></g><g fill="#ffffff" fill-opacity="1"><g transform="translate(217.336543, 75.908607)"><g><path d="M 23.28125 -6.6875 L 9.5625 -6.6875 L 7.21875 0 L 1.609375 0 L 13.34375 -32.8125 L 19.5625 -32.8125 L 31.296875 0 L 25.640625 0 Z M 21.78125 -11.078125 L 16.453125 -26.296875 L 11.078125 -11.078125 Z M 21.78125 -11.078125 "/></g></g></g><g fill="#ffffff" fill-opacity="1"><g transform="translate(250.187514, 75.908607)"><g><path d="M 1.75 -16.453125 C 1.75 -19.660156 2.492188 -22.535156 3.984375 -25.078125 C 5.472656 -27.617188 7.5 -29.601562 10.0625 -31.03125 C 12.625 -32.46875 15.429688 -33.1875 18.484375 -33.1875 C 21.972656 -33.1875 25.070312 -32.328125 27.78125 -30.609375 C 30.5 -28.898438 32.472656 -26.472656 33.703125 -23.328125 L 27.25 -23.328125 C 26.394531 -25.054688 25.210938 -26.34375 23.703125 -27.1875 C 22.203125 -28.039062 20.460938 -28.46875 18.484375 -28.46875 C 16.304688 -28.46875 14.367188 -27.976562 12.671875 -27 C 10.984375 -26.03125 9.660156 -24.632812 8.703125 -22.8125 C 7.742188 -20.988281 7.265625 -18.867188 7.265625 -16.453125 C 7.265625 -14.035156 7.742188 -11.914062 8.703125 -10.09375 C 9.660156 -8.269531 10.984375 -6.863281 12.671875 -5.875 C 14.367188 -4.882812 16.304688 -4.390625 18.484375 -4.390625 C 20.460938 -4.390625 22.203125 -4.8125 23.703125 -5.65625 C 25.210938 -6.5 26.394531 -7.785156 27.25 -9.515625 L 33.703125 -9.515625 C 32.472656 -6.378906 30.5 -3.960938 27.78125 -2.265625 C 25.070312 -0.566406 21.972656 0.28125 18.484375 0.28125 C 15.398438 0.28125 12.582031 -0.429688 10.03125 -1.859375 C 7.488281 -3.285156 5.472656 -5.269531 3.984375 -7.8125 C 2.492188 -10.363281 1.75 -13.242188 1.75 -16.453125 Z M 1.75 -16.453125 "/></g></g></g><g fill="#ffffff" fill-opacity="1"><g transform="translate(286.620515, 75.908607)"><g><path d="M 24.703125 -32.765625 L 24.703125 -28.375 L 15.984375 -28.375 L 15.984375 0 L 10.609375 0 L 10.609375 -28.375 L 1.84375 -28.375 L 1.84375 -32.765625 Z M 24.703125 -32.765625 "/></g></g></g><g fill="#ffffff" fill-opacity="1"><g transform="translate(313.202931, 75.908607)"><g/></g></g><g fill="#ffffff" fill-opacity="1"><g transform="translate(325.457243, 75.908607)"><g><path d="M 8.90625 -32.765625 L 8.90625 0 L 3.53125 0 L 3.53125 -32.765625 Z M 8.90625 -32.765625 "/></g></g></g><g fill="#ffffff" fill-opacity="1"><g transform="translate(337.900073, 75.908607)"><g><path d="M 28.890625 5.9375 L 23.140625 -0.28125 C 21.734375 0.125 20.179688 0.328125 18.484375 0.328125 C 15.429688 0.328125 12.625 -0.382812 10.0625 -1.8125 C 7.5 -3.238281 5.472656 -5.234375 3.984375 -7.796875 C 2.492188 -10.359375 1.75 -13.242188 1.75 -16.453125 C 1.75 -19.660156 2.492188 -22.535156 3.984375 -25.078125 C 5.472656 -27.617188 7.5 -29.601562 10.0625 -31.03125 C 12.625 -32.46875 15.429688 -33.1875 18.484375 -33.1875 C 21.554688 -33.1875 24.375 -32.46875 26.9375 -31.03125 C 29.5 -29.601562 31.519531 -27.617188 33 -25.078125 C 34.476562 -22.535156 35.21875 -19.660156 35.21875 -16.453125 C 35.21875 -13.429688 34.5625 -10.703125 33.25 -8.265625 C 31.945312 -5.835938 30.148438 -3.882812 27.859375 -2.40625 L 35.734375 5.9375 Z M 7.265625 -16.453125 C 7.265625 -14.035156 7.742188 -11.90625 8.703125 -10.0625 C 9.660156 -8.226562 10.984375 -6.816406 12.671875 -5.828125 C 14.367188 -4.835938 16.304688 -4.34375 18.484375 -4.34375 C 20.648438 -4.34375 22.582031 -4.835938 24.28125 -5.828125 C 25.976562 -6.816406 27.304688 -8.226562 28.265625 -10.0625 C 29.222656 -11.90625 29.703125 -14.035156 29.703125 -16.453125 C 29.703125 -18.867188 29.222656 -20.988281 28.265625 -22.8125 C 27.304688 -24.632812 25.976562 -26.03125 24.28125 -27 C 22.582031 -27.976562 20.648438 -28.46875 18.484375 -28.46875 C 16.304688 -28.46875 14.367188 -27.976562 12.671875 -27 C 10.984375 -26.03125 9.660156 -24.632812 8.703125 -22.8125 C 7.742188 -20.988281 7.265625 -18.867188 7.265625 -16.453125 Z M 7.265625 -16.453125 "/></g></g></g><g clip-path="url(#ace67ec99c)"><g clip-path="url(#515b9c6f7b)"><path fill="url(#4b7bf5575f)" d="M 0.015625 16.113281 L 0.015625 103.863281 L 127.484375 103.863281 L 127.484375 16.113281 Z M 0.015625 16.113281 " fill-rule="nonzero"/></g></g></svg>