<?xml version="1.0" encoding="utf-8"?>
<!-- Generator: Adobe Illustrator 19.0.0, SVG Export Plug-In . SVG Version: 6.00 Build 0)  -->
<svg version="1.1" id="Layer_1" xmlns="http://www.w3.org/2000/svg" xmlns:xlink="http://www.w3.org/1999/xlink" x="0px" y="0px"
	 viewBox="0 0 120 120" style="enable-background:new 0 0 120 120;" xml:space="preserve">
<style type="text/css">
	.st0{fill-rule:evenodd;clip-rule:evenodd;fill:#E85C5C;}
</style>
<path id="XMLID_7_" class="st0" d="M112.6,31.4H91.8L89,47.8h20.3v60.7H10.6V47.8c20.6,0,38.2,0,57.4,0l2.8-16.4H7.4
	c-1.3,0-2.4,1.1-2.4,2.4v77.8c0,1.3,1.1,2.4,2.4,2.4l105.2,0.1c1.3,0,2.4-1.1,2.4-2.4V33.8C115,32.5,113.9,31.4,112.6,31.4z
	 M12.7,36.5h17.1c2.6,0,2.6,5.6,0,5.6H12.7C10.1,42.2,10.1,36.5,12.7,36.5z M97.1,42.2c-1.6,0-2.8-1.3-2.8-2.8
	c0-1.6,1.3-2.8,2.8-2.8s2.8,1.3,2.8,2.8C100,40.9,98.7,42.2,97.1,42.2z M106.6,42.2c-1.6,0-2.8-1.3-2.8-2.8c0-1.6,1.3-2.8,2.8-2.8
	c1.6,0,2.8,1.3,2.8,2.8C109.4,40.9,108.1,42.2,106.6,42.2z M70,20.4L84.8,6.1c0.5-0.4,1.2-0.3,1.5,0.2l9.5,18.3
	c0.4,0.7-0.2,1.5-1,1.4l-7.6-1.2l-8.1,47.3l-18-7l-8.3,19.5l-14.4-8.2L26.6,100l-10.3,0l18.2-36.6l13.8,7.8l7.7-18.2l15.8,6.1
	l6.1-36L70.5,22C69.7,21.9,69.4,20.9,70,20.4z"/>
</svg>
