<?xml version="1.0" encoding="utf-8"?>
<!-- Generator: Adobe Illustrator 19.0.0, SVG Export Plug-In . SVG Version: 6.00 Build 0)  -->
<svg version="1.1" id="Layer_1" xmlns="http://www.w3.org/2000/svg" xmlns:xlink="http://www.w3.org/1999/xlink" x="0px" y="0px"
	 viewBox="0 0 120 120" style="enable-background:new 0 0 120 120;" xml:space="preserve">
<style type="text/css">
	.st0{display:none;fill-rule:evenodd;clip-rule:evenodd;fill:#E85C5C;}
	.st1{fill-rule:evenodd;clip-rule:evenodd;fill:#2CA5C3;}
	.st2{fill:#2CA5C3;}
</style>
<path id="XMLID_7_" class="st0" d="M112.6,31.4H91.8L89,47.8h20.3v60.7H10.6V47.8c20.6,0,38.2,0,57.4,0l2.8-16.4H7.4
	c-1.3,0-2.4,1.1-2.4,2.4v77.8c0,1.3,1.1,2.4,2.4,2.4l105.2,0.1c1.3,0,2.4-1.1,2.4-2.4V33.8C115,32.5,113.9,31.4,112.6,31.4z
	 M12.7,36.5h17.1c2.6,0,2.6,5.6,0,5.6H12.7C10.1,42.2,10.1,36.5,12.7,36.5z M97.1,42.2c-1.6,0-2.8-1.3-2.8-2.8
	c0-1.6,1.3-2.8,2.8-2.8s2.8,1.3,2.8,2.8C100,40.9,98.7,42.2,97.1,42.2z M106.6,42.2c-1.6,0-2.8-1.3-2.8-2.8c0-1.6,1.3-2.8,2.8-2.8
	c1.6,0,2.8,1.3,2.8,2.8C109.4,40.9,108.1,42.2,106.6,42.2z M70,20.4L84.8,6.1c0.5-0.4,1.2-0.3,1.5,0.2l9.5,18.3
	c0.4,0.7-0.2,1.5-1,1.4l-7.6-1.2l-8.1,47.3l-18-7l-8.3,19.5l-14.4-8.2L26.6,100l-10.3,0l18.2-36.6l13.8,7.8l7.7-18.2l15.8,6.1
	l6.1-36L70.5,22C69.7,21.9,69.4,20.9,70,20.4z"/>
<g id="XMLID_17_">
	<path id="XMLID_27_" class="st1" d="M86.4,72.4c-1.2,0.5-2.1,1.8-2.3,2.5c-0.2,0.8-0.5,1.7-0.7,2.8c0.1,0.3,0.1,0.6,0.2,1
		c0.3,1.8,0.6,3.9,0.9,6.3c0.2,2.4,0.4,4.5,0.6,6.5c0.1,1.2,0.2,2.3,0.2,3.3h29.2c-0.1-2.6-0.4-5.9-0.8-9.5c-0.5-4.6-1.2-8-1.9-10.4
		c-0.2-0.7-1.1-1.9-2.3-2.5c-2.7-1.2-7.1-3.8-11.6-3.8C93.5,68.7,89.1,71.2,86.4,72.4L86.4,72.4z M97.9,45.5c4.5,0,8.2,3.6,8.2,8
		c0,4.3-3.1,12-8.2,12c-5.2,0-8.2-7.7-8.2-12C89.7,49.1,93.4,45.5,97.9,45.5L97.9,45.5z"/>
	<path id="XMLID_24_" class="st1" d="M33.1,72.4c1.2,0.5,2.1,1.8,2.3,2.5c0.2,0.8,0.5,1.7,0.7,2.8c-0.1,0.3-0.1,0.6-0.2,1
		c-0.3,1.8-0.6,3.9-0.9,6.3c-0.2,2.4-0.4,4.5-0.6,6.5c-0.1,1.2-0.2,2.3-0.2,3.3H5c0.1-2.6,0.4-5.9,0.8-9.5c0.5-4.6,1.2-8,1.9-10.4
		c0.2-0.7,1.1-1.9,2.3-2.5c2.7-1.2,7.1-3.8,11.6-3.8C26,68.7,30.4,71.2,33.1,72.4L33.1,72.4z M21.5,45.5c-4.5,0-8.2,3.6-8.2,8
		c0,4.3,3.1,12,8.2,12c5.2,0,8.2-7.7,8.2-12C29.8,49.1,26.1,45.5,21.5,45.5L21.5,45.5z"/>
	<path id="XMLID_21_" class="st1" d="M81.2,103.5c0-3-0.7-14.7-1.3-20.5c-0.6-5.8-1.4-10-2.4-13c-0.3-0.8-1.4-2.4-2.9-3.1
		c-1.9-0.9-4.9-2.3-7.8-3.4c0.1,1.7-0.9,6.7-1.2,8.8c-0.1,1.1-1.1,1.8-2.1,1.6c-1-0.1-1.8-1.1-1.6-2.2l0.7-6.4c-1.9,0-3.8,0-5.7,0
		c0.2,2.2,1.9,8.1-0.9,8.5c-1,0.1-2-0.6-2.1-1.6c-0.3-2.1-1.3-7-1.2-8.8c-2.9,1-5.9,2.5-7.8,3.4c-1.5,0.7-2.6,2.2-2.9,3.1
		c-0.9,3-1.8,7.2-2.4,13c-0.6,5.8-1.3,17.5-1.3,20.5C52.3,103.5,67.2,103.5,81.2,103.5L81.2,103.5z M59.7,33.8
		c5.7,0,10.2,4.5,10.2,10c0,5.3-3.8,16.1-10.2,16.1c-6.4,0-10.2-10.7-10.2-16.1C49.5,38.3,54.1,33.8,59.7,33.8L59.7,33.8z"/>
	<path id="XMLID_18_" class="st2" d="M37.9,56.9c0.4,0.7,0.2,1.6-0.5,2c-0.7,0.4-1.6,0.2-1.9-0.5c-1.2-2.2-2.2-4.5-2.8-6.9
		c-0.6-2.4-1-4.9-1-7.4c0-7.8,3.1-14.9,8.2-20.1c5.1-5.1,12.1-8.3,19.9-8.3c7.8,0,14.8,3.2,19.9,8.3c5.1,5.1,8.2,12.2,8.2,20.1
		c0,2.5-0.3,5-1,7.4c-0.6,2.4-1.6,4.7-2.8,6.9c-0.4,0.7-1.3,0.9-1.9,0.5c-0.7-0.4-0.9-1.3-0.5-2c1.1-1.9,1.9-4,2.5-6.2
		c0.6-2.1,0.9-4.4,0.9-6.6c0-7-2.8-13.4-7.4-18c-4.6-4.6-10.9-7.5-17.8-7.5c-7,0-13.3,2.9-17.8,7.5c-4.6,4.6-7.4,11-7.4,18
		c0,2.2,0.3,4.5,0.9,6.6C35.9,52.9,36.8,55,37.9,56.9L37.9,56.9z M44.9,52.8c0.4,0.7,0.2,1.6-0.5,2c-0.7,0.4-1.6,0.2-1.9-0.5
		c-0.9-1.5-1.6-3.2-2-4.9c-0.5-1.7-0.7-3.5-0.7-5.2c0-5.6,2.2-10.7,5.9-14.3c3.6-3.7,8.6-5.9,14.2-5.9c5.5,0,10.5,2.3,14.2,5.9
		c3.6,3.7,5.9,8.7,5.9,14.3c0,1.8-0.2,3.5-0.7,5.2c-0.5,1.7-1.1,3.3-2,4.9c-0.4,0.7-1.3,0.9-1.9,0.5c-0.7-0.4-0.9-1.3-0.5-2
		c0.8-1.3,1.3-2.7,1.7-4.2c0.4-1.5,0.6-3,0.6-4.5c0-4.8-1.9-9.1-5-12.3c-3.1-3.1-7.4-5.1-12.2-5.1c-4.7,0-9,1.9-12.2,5.1
		c-3.1,3.1-5,7.5-5,12.3c0,1.5,0.2,3,0.6,4.5C43.5,50.1,44.1,51.5,44.9,52.8L44.9,52.8z"/>
</g>
</svg>
